<?xml version="1.0" encoding="UTF-8" standalone="no"?>
<!DOCTYPE svg PUBLIC "-//W3C//DTD SVG 20010904//EN"
 "http://www.w3.org/TR/2001/REC-SVG-20010904/DTD/svg10.dtd">
<svg id="svg2" xmlns="http://www.w3.org/2000/svg" height="32" width="32" version="1.0" viewBox="0 0 728.000000 796.000000"
 preserveAspectRatio="xMidYMid meet">
<metadata>
Created by potrace 1.15, written by Peter Selinger 2001-2017
</metadata>
<g transform="translate(0.000000,796.000000) scale(0.100000,-0.100000)"
fill="#000000" stroke="none">
<path d="M2865 7894 c-327 -81 -569 -416 -675 -934 -25 -121 -50 -332 -41
-342 3 -4 44 -18 91 -32 336 -100 792 -240 875 -270 55 -19 100 -34 101 -33
37 53 140 239 175 317 103 230 144 421 136 630 -7 193 -48 325 -136 443 -111
149 -234 216 -406 222 -55 2 -109 2 -120 -1z"/>
<path d="M1999 6102 c-197 -213 -412 -874 -526 -1617 -24 -162 -27 -205 -26
-430 1 -276 18 -468 59 -680 88 -443 277 -695 581 -776 104 -28 301 -30 387
-5 404 119 702 617 845 1411 80 446 60 686 -86 1019 -77 175 -113 400 -113
711 l0 154 -37 10 c-21 6 -123 31 -228 57 -104 25 -327 82 -495 125 -167 43
-305 79 -306 79 -1 0 -26 -26 -55 -58z"/>
<path d="M4425 5292 c-159 -49 -281 -154 -359 -313 -62 -125 -79 -209 -80
-384 -1 -162 21 -279 83 -455 49 -135 157 -350 227 -448 1 -2 78 21 171 52
151 49 348 111 443 138 19 5 123 37 230 70 107 33 203 62 214 65 16 5 17 13
11 72 -35 353 -140 690 -278 890 -92 135 -253 263 -376 302 -94 29 -211 34
-286 11z"/>
<path d="M5240 3509 c-148 -39 -719 -182 -817 -204 -21 -5 -23 -12 -23 -63 -2
-156 -20 -447 -35 -527 -19 -111 -51 -213 -102 -330 -77 -175 -103 -290 -110
-490 -6 -171 9 -325 58 -570 133 -674 395 -1133 736 -1292 l72 -33 203 0 c192
0 207 1 273 25 243 89 406 310 494 671 60 250 98 680 80 922 -42 600 -284
1499 -483 1797 -58 86 -115 145 -140 144 -11 0 -104 -23 -206 -50z"/>
</g>
</svg>
