<?xml version="1.0" encoding="UTF-8" standalone="no"?>
<!DOCTYPE svg PUBLIC "-//W3C//DTD SVG 20010904//EN"
 "http://www.w3.org/TR/2001/REC-SVG-20010904/DTD/svg10.dtd">
<svg id="svg2" xmlns="http://www.w3.org/2000/svg" height="32" width="32" version="1.0" viewBox="0 0 728.000000 796.000000"
 preserveAspectRatio="xMidYMid meet">
<metadata>
Created by potrace 1.15, written by Peter Selinger 2001-2017
</metadata>
<g transform="translate(0.000000,796.000000) scale(0.100000,-0.100000)"
fill="#000000" stroke="none">
<path d="M1781 7934 c-289 -108 -470 -416 -536 -914 -29 -218 -45 -529 -34
-678 26 -374 139 -917 274 -1320 100 -298 200 -495 300 -592 l36 -34 187 48
c173 44 798 200 850 211 20 5 22 12 22 63 2 156 20 447 35 527 19 111 51 213
102 330 77 175 103 290 110 490 6 171 -9 325 -58 570 -133 674 -395 1133 -736
1292 l-72 33 -208 -1 c-194 -1 -212 -2 -272 -25z"/>
<path d="M4885 5381 c-179 -22 -345 -130 -499 -321 -189 -235 -338 -622 -425
-1105 -80 -446 -60 -686 86 -1019 77 -175 113 -400 113 -711 l0 -154 38 -10
c20 -6 123 -31 227 -57 105 -25 327 -82 495 -125 l305 -80 55 58 c196 208 412
872 527 1618 24 162 27 205 26 430 -2 654 -118 1079 -356 1301 -143 135 -373
202 -592 175z"/>
<path d="M2925 4254 c-43 -16 -317 -104 -480 -153 -55 -17 -190 -58 -300 -92
-110 -33 -208 -63 -219 -66 -16 -5 -17 -13 -11 -72 29 -290 100 -555 202 -756
58 -115 90 -161 172 -248 249 -265 576 -286 807 -52 85 86 155 215 181 335 26
118 23 329 -6 460 -28 127 -84 286 -140 400 -59 119 -144 260 -156 259 -5 0
-28 -7 -50 -15z"/>
<path d="M3998 1566 c-120 -200 -199 -407 -234 -606 -20 -118 -15 -332 11
-430 58 -215 190 -373 370 -442 50 -19 78 -23 175 -22 96 0 125 4 175 23 329
130 561 544 629 1128 8 65 11 121 7 125 -3 4 -44 18 -91 32 -487 145 -891 272
-965 302 -5 2 -40 -47 -77 -110z"/>
</g>
</svg>
