<?xml version="1.0" standalone="no"?>
<!DOCTYPE svg PUBLIC "-//W3C//DTD SVG 20010904//EN"
 "http://www.w3.org/TR/2001/REC-SVG-20010904/DTD/svg10.dtd">
<svg id="svg2" xmlns="http://www.w3.org/2000/svg" height="32" width="32" version="1.0" viewBox="0 0 796.000000 728.000000"
 preserveAspectRatio="xMidYMid meet">
<metadata>
Created by potrace 1.15, written by Peter Selinger 2001-2017
</metadata>
<g transform="translate(0.000000,728.000000) scale(0.100000,-0.100000)"
fill="#000000" stroke="none">
<path d="M3880 5834 c-258 -13 -562 -62 -725 -116 -305 -102 -490 -277 -556
-525 -28 -104 -30 -301 -5 -387 119 -404 617 -702 1411 -845 446 -80 686 -60
1019 86 175 77 400 113 711 113 l154 0 10 38 c6 20 31 123 57 227 25 105 82
327 125 495 l80 305 -58 55 c-209 197 -894 419 -1618 525 -178 26 -421 38
-605 29z"/>
<path d="M6609 5112 c-6 -14 -19 -56 -29 -92 -59 -201 -234 -769 -264 -855
-19 -55 -34 -100 -33 -101 1 -1 49 -30 107 -64 195 -118 412 -201 610 -236
118 -20 332 -15 430 11 215 58 373 190 442 370 19 50 23 78 22 175 0 96 -4
125 -23 175 -127 322 -542 559 -1096 625 -49 6 -105 12 -123 15 -28 3 -34 0
-43 -23z"/>
<path d="M4475 3294 c-182 -27 -376 -89 -544 -174 -81 -40 -199 -108 -239
-136 -2 -1 21 -78 52 -171 49 -151 111 -348 138 -443 5 -19 37 -123 70 -230
33 -107 62 -203 65 -214 5 -16 13 -17 72 -11 290 29 555 100 756 202 115 58
161 90 248 172 265 249 286 576 52 807 -85 84 -216 155 -330 179 -71 16 -285
27 -340 19z"/>
<path d="M1585 3114 c-273 -37 -586 -114 -806 -198 -375 -142 -635 -346 -746
-583 l-33 -72 0 -203 c0 -192 1 -207 25 -273 89 -243 310 -406 671 -494 250
-60 680 -98 922 -80 374 26 917 139 1320 274 298 100 495 200 592 300 l34 36
-48 187 c-44 173 -200 798 -211 850 -5 20 -12 22 -63 22 -156 2 -447 20 -527
35 -111 19 -213 51 -330 102 -186 82 -292 104 -515 108 -120 3 -210 -1 -285
-11z"/>
</g>
</svg>
