<?xml version="1.0" standalone="no"?>
<!DOCTYPE svg PUBLIC "-//W3C//DTD SVG 20010904//EN"
 "http://www.w3.org/TR/2001/REC-SVG-20010904/DTD/svg10.dtd">
<svg id="svg2" xmlns="http://www.w3.org/2000/svg" height="32" width="32" version="1.0" viewBox="0 0 796.000000 728.000000"
 preserveAspectRatio="xMidYMid meet">
<metadata>
Created by potrace 1.15, written by Peter Selinger 2001-2017
</metadata>
<g transform="translate(0.000000,728.000000) scale(0.100000,-0.100000)"
fill="#000000" stroke="none">
<path d="M6329 6069 c-353 -25 -916 -143 -1307 -274 -298 -100 -495 -200 -592
-300 l-34 -36 48 -187 c44 -173 200 -798 211 -849 5 -21 12 -23 63 -23 156 -2
447 -20 527 -35 111 -19 213 -51 330 -102 175 -77 290 -103 490 -110 171 -6
325 9 570 58 674 133 1133 395 1292 736 l33 72 0 203 c0 192 -1 207 -25 273
-106 291 -414 473 -915 540 -108 15 -521 46 -565 43 -11 0 -68 -4 -126 -9z"/>
<path d="M3860 5365 c-8 -2 -55 -9 -105 -15 -234 -31 -457 -95 -629 -182 -124
-62 -170 -93 -259 -177 -265 -249 -286 -576 -52 -807 86 -85 215 -155 335
-181 118 -26 329 -23 460 6 209 46 493 170 658 287 2 1 -21 78 -52 171 -49
151 -111 348 -138 443 -5 19 -37 123 -70 230 -33 107 -62 203 -65 213 -5 16
-37 21 -83 12z"/>
<path d="M625 3524 c-247 -51 -386 -134 -489 -291 -54 -82 -71 -149 -70 -273
0 -96 4 -125 23 -175 130 -329 544 -561 1128 -629 65 -8 121 -11 125 -7 4 3
18 44 32 91 100 336 240 792 270 875 19 55 34 100 33 101 -1 1 -49 30 -107 64
-192 116 -411 201 -604 235 -80 14 -290 19 -341 9z"/>
<path d="M3400 3360 c-156 -13 -260 -41 -440 -118 -207 -88 -412 -122 -735
-122 l-154 0 -10 -37 c-6 -21 -31 -123 -57 -228 -25 -104 -82 -327 -125 -495
l-80 -305 58 -55 c208 -196 872 -412 1618 -527 162 -24 205 -27 430 -26 276 1
468 18 680 59 443 88 695 277 776 581 28 104 30 301 5 387 -119 404 -617 702
-1411 845 -159 29 -372 53 -440 49 -16 0 -68 -4 -115 -8z"/>
</g>
</svg>
